<svg xmlns="http://www.w3.org/2000/svg" width="37.123" height="37.291" viewBox="0 0 37.123 37.291">
  <path id="whatsapp" d="M31.7,5.421A18.305,18.305,0,0,0,18.631,0,18.492,18.492,0,0,0,2.613,27.714L0,37.291l9.8-2.568a18.489,18.489,0,0,0,8.833,2.249h.009A18.473,18.473,0,0,0,31.7,5.421ZM18.631,33.844A15.32,15.32,0,0,1,10.81,31.7l-.559-.336L4.438,32.888,5.99,27.218l-.364-.585a15.353,15.353,0,1,1,13.005,7.211Zm8.425-11.5C26.6,22.114,24.33,21,23.9,20.839s-.734-.231-1.037.231-1.2,1.506-1.461,1.806-.541.345-1,.117a12.608,12.608,0,0,1-3.71-2.3,14.091,14.091,0,0,1-2.571-3.2c-.266-.461-.026-.709.205-.939.2-.205.459-.541.69-.806a2.947,2.947,0,0,0,.461-.769.86.86,0,0,0-.035-.809c-.117-.231-1.037-2.508-1.426-3.426-.373-.907-.753-.781-1.037-.792-.266-.016-.576-.016-.886-.016a1.7,1.7,0,0,0-1.233.576A5.175,5.175,0,0,0,9.25,14.371a8.946,8.946,0,0,0,1.888,4.776c.228.31,3.249,4.969,7.885,6.973a25.687,25.687,0,0,0,2.631.974,6.343,6.343,0,0,0,2.9.186c.886-.135,2.729-1.119,3.118-2.2a3.866,3.866,0,0,0,.266-2.2c-.114-.2-.424-.31-.886-.541Z" transform="translate(0 0)" fill="#fff"/>
</svg>
